<?xml version="1.0" encoding="UTF-8"?> <svg xmlns="http://www.w3.org/2000/svg" width="80" height="80" viewBox="0 0 80 80" fill="none"><circle cx="42.9682" cy="39.7343" r="32.7343" fill="#2E3049"></circle><path d="M14.4491 38.5342C13.2176 39.1313 12.3593 40.3255 11.4637 41.4078C11.6503 41.1092 11.7995 40.8107 11.9861 40.5121C11.6503 40.9973 11.389 41.5197 11.0905 42.0422C10.568 42.9752 10.0455 43.9081 9.41113 44.6545C9.56041 44.8038 9.67236 44.9531 9.747 45.1396C10.568 44.3933 11.2024 43.423 11.8368 42.5273C12.1727 42.0422 12.4713 41.5571 12.8071 41.1466C13.143 40.6987 13.4789 40.2882 13.852 39.9524C14.0386 39.7658 14.2252 39.6538 14.4118 39.5045C14.5984 39.3926 14.785 39.2433 15.0089 39.1687C15.1209 39.094 15.2702 39.0567 15.3821 38.9821C15.4941 38.6835 15.6433 38.3477 15.7553 38.0864C15.3448 38.1611 14.897 38.3103 14.4491 38.5342Z" fill="#0B0F2F"></path><path d="M7.8064 44.0201C7.91835 44.0201 8.03031 44.0575 8.14226 44.0575C8.03031 44.0575 7.91835 44.0575 7.8064 44.0201Z" fill="#394092"></path><path d="M9.44855 44.6172C9.15001 44.356 8.70218 44.1694 8.17972 44.0947C8.92609 44.244 9.52319 44.5425 9.70979 44.9531C8.44095 44.6918 7.1348 44.8411 5.71669 45.2143C5.45546 45.2889 5.15691 45.3636 4.89568 45.4382C4.85836 45.4382 4.82104 45.4382 4.82104 45.4755C4.55981 45.4755 4.29858 45.4755 4.03735 45.4382C4.03735 45.4755 4.03735 45.4755 4.07467 45.5128C4.29858 45.886 5.5301 46.6697 6.50038 46.6697C7.76922 46.6697 9.82174 46.0726 9.82174 45.3262C9.82174 45.2516 9.82174 45.2143 9.78442 45.1396C9.70979 44.9157 9.59783 44.7665 9.44855 44.6172Z" fill="#0B0F2F"></path><path d="M4.89565 45.4009C5.15688 45.3263 5.45543 45.2517 5.71666 45.177C7.09745 44.8412 8.44092 44.6546 9.70975 44.9158C9.52316 44.5053 8.92606 44.1694 8.17969 44.0575H8.14237C8.03041 44.0201 7.91846 44.0201 7.8065 44.0201H7.76918C7.65723 44.0201 7.54527 44.0201 7.396 44.0201C6.12716 44.0201 6.12716 45.289 4.18659 45.289C4.14927 45.289 4.11196 45.289 4.07464 45.289H4.03732C4.03732 45.289 4 45.289 4 45.3263C4 45.3263 4 45.3263 4 45.3636V45.4009V45.4383C4.26123 45.4383 4.52246 45.4756 4.78369 45.4756C4.82101 45.4383 4.85833 45.4383 4.89565 45.4009Z" fill="#0B0F2F"></path><path d="M60.2393 47.8265C59.6048 47.6399 58.9704 47.4534 58.336 47.2668C57.7389 47.0802 57.1418 46.9309 56.5447 46.7816C56.3954 46.8563 56.2088 46.9309 56.0596 47.0055C56.1342 47.1921 56.1715 47.3787 56.2088 47.6773C56.3208 48.7968 55.761 50.5135 57.2911 49.9164C57.7389 49.7298 58.3733 49.3939 59.0451 49.0207C59.4182 48.6102 59.8288 48.1624 60.2393 47.8265Z" fill="#0B0F2F"></path><path d="M67.9641 45.5501C68.0014 45.5501 68.0388 45.5128 68.1134 45.5128C68.0388 45.5128 68.0014 45.5128 67.9641 45.5501Z" fill="#2F64AD"></path><path d="M68.5613 45.3263C68.4867 45.3636 68.412 45.4009 68.3374 45.4009C68.412 45.4009 68.4867 45.3636 68.5613 45.3263Z" fill="#2F64AD"></path><path d="M66.6954 33.4589C64.6801 37.1161 66.5461 41.7063 69.0464 45.1023C69.6435 44.8037 70.0913 44.3559 70.3153 43.7588C72.3305 38.7581 70.2406 37.2654 67.9269 34.9889C67.3671 34.2799 66.77 33.5335 66.1356 32.8245C66.3222 33.0484 66.5088 33.2723 66.6954 33.4589Z" fill="url(#paint0_linear)"></path><path d="M69.0091 45.1396C68.9345 45.177 68.8971 45.2143 68.8225 45.2143C68.8971 45.177 68.9345 45.177 69.0091 45.1396Z" fill="#2F64AD"></path><path d="M66.6953 33.4589C66.5088 33.235 66.3222 33.0484 66.1356 32.8245C65.6504 33.9813 65.0533 35.3621 64.4189 36.7429C64.4189 36.7802 64.3816 36.7802 64.3816 36.8176C64.3443 36.9295 64.2696 37.0415 64.2323 37.1534C64.195 37.2654 64.1204 37.3773 64.083 37.4893C64.0457 37.5639 64.0084 37.6759 63.9711 37.7505C63.9338 37.8252 63.8964 37.8998 63.8591 37.9744C63.5979 38.5342 63.3367 39.094 63.0754 39.6165C63.7845 40.4375 64.4935 41.2212 65.0906 42.0422C66.2848 43.199 67.4417 44.1693 67.9642 45.5501C68.0015 45.5501 68.0388 45.5128 68.1135 45.5128C68.1881 45.4755 68.2627 45.4755 68.3374 45.4382C68.412 45.4008 68.4866 45.3635 68.5613 45.3635C68.6359 45.3262 68.7479 45.2889 68.8225 45.2516C68.8971 45.2142 68.9345 45.1769 69.0091 45.1769C69.0091 45.1769 69.0464 45.1769 69.0464 45.1396C66.5461 41.7063 64.6801 37.1161 66.6953 33.4589Z" fill="#0B0F2F"></path><path d="M31.056 62.0822C31.0187 62.0822 31.0187 62.0449 31.0187 62.0449L30.9814 62.0076C30.9441 61.9703 30.9441 61.9703 30.9067 61.933C30.8694 61.8956 30.8694 61.8956 30.8321 61.8583L30.7948 61.821C30.7948 61.821 30.7948 61.821 30.7948 61.7837C30.0111 62.5674 29.1901 63.7243 28.8915 64.5453C28.2944 66.0753 28.8169 65.5902 29.7125 66.2619C30.6082 66.9337 31.5038 68.5384 32.1009 67.0083C32.4741 66.0753 32.9219 64.2094 32.9593 62.7913C32.7727 63.0152 31.6531 62.5301 31.056 62.0822Z" fill="#4C4294"></path><path d="M28.6304 54.9917C29.8992 55.5515 31.2427 56.074 32.5488 56.5591C31.989 56.3725 29.526 55.3649 28.3691 54.8798C28.4438 54.9171 28.5184 54.9544 28.6304 54.9917Z" fill="#2F64AD"></path><path d="M26.839 54.1707C26.8017 54.1707 26.8017 54.1334 26.7644 54.1334C26.8017 54.1334 26.8017 54.1707 26.839 54.1707Z" fill="#2F64AD"></path><path d="M26.3165 53.9096C26.2418 53.8722 26.1672 53.8349 26.1299 53.7976C26.1672 53.8349 26.2418 53.8722 26.3165 53.9096Z" fill="#2F64AD"></path><path d="M37.2135 50.103C36.0939 50.3642 34.9744 50.6628 33.8548 50.9986C32.9965 51.2598 30.8693 51.8196 31.5411 53.1258C32.1008 54.208 33.1831 55.1783 34.1534 55.8127C34.7878 56.2232 35.5341 56.5218 36.3552 56.7084C36.4671 56.7457 37.6986 57.0442 37.624 57.1189C36.0939 58.6863 31.8769 60.1044 31.0932 62.0449C31.0932 62.0449 31.0559 62.0822 31.0559 62.1196C31.653 62.5674 32.7352 63.0525 32.8845 62.9033C35.6461 60.179 36.9896 61.6717 39.266 60.067C41.5424 58.425 43.6696 57.5667 41.0946 52.566C40.6841 51.7077 40.199 50.7747 39.6765 49.8044C39.5272 49.4686 37.512 50.0283 37.2135 50.103Z" fill="url(#paint1_linear)"></path><path d="M39.0422 48.6476C39.1915 48.9088 39.3408 49.17 39.4901 49.4313C39.3408 49.17 39.1915 48.9088 39.0422 48.6476Z" fill="#2F64AD"></path><path d="M38.8182 48.237C38.7435 48.1251 38.7062 48.0504 38.6316 47.9385C38.6689 48.0504 38.7435 48.1624 38.8182 48.237Z" fill="#2F64AD"></path><path d="M30.9814 62.0077L31.0188 62.045C30.9814 62.045 30.9814 62.045 30.9814 62.0077Z" fill="#2F64AD"></path><path d="M30.7576 61.7837C30.7576 61.7837 30.7576 61.821 30.7949 61.821C30.7949 61.821 30.7949 61.821 30.7949 61.8583C30.7576 61.821 30.7576 61.821 30.7576 61.7837Z" fill="#2F64AD"></path><path d="M30.9067 61.9704C30.8693 61.9331 30.8693 61.9331 30.832 61.8958C30.8693 61.8958 30.8693 61.9331 30.9067 61.9704Z" fill="#2F64AD"></path><path d="M36.9896 47.8266C33.1458 47.6027 30.123 48.5356 28.0331 49.5059C27.3614 50.8867 26.615 52.3421 25.8687 53.7229C25.9433 53.7602 26.0552 53.7975 26.1299 53.8722C26.2045 53.9095 26.2792 53.9468 26.3165 53.9841C26.4658 54.0588 26.615 54.1334 26.7643 54.2081C26.8016 54.2081 26.8016 54.2454 26.8389 54.2454C27.2494 54.4693 27.6973 54.6559 28.1451 54.8425C28.2197 54.8798 28.257 54.9171 28.3317 54.9171C29.4886 55.4022 31.9516 56.4098 32.5114 56.5964C31.5411 58.2758 31.0559 60.5149 30.6828 61.7091C30.6828 61.7464 30.6828 61.7464 30.6828 61.7837C30.6828 61.7837 30.6828 61.821 30.7201 61.821C30.7201 61.8584 30.7574 61.8584 30.7574 61.8957L30.7947 61.933C30.7947 61.9703 30.832 61.9703 30.8693 62.0076C30.9067 62.045 30.9067 62.045 30.944 62.0823L30.9813 62.1196L31.0186 62.1569C31.0186 62.1196 31.0559 62.1196 31.0559 62.0823C31.8396 60.1044 36.0193 58.6863 37.5867 57.1562C37.6613 57.0816 36.4298 56.783 36.3179 56.7457C35.4969 56.5591 34.7505 56.2606 34.1161 55.8501C33.1085 55.2157 32.0262 54.208 31.5038 53.1631C30.832 51.857 32.9592 51.2972 33.8175 51.036C34.9371 50.7001 36.0566 50.4016 37.1762 50.1403C37.4747 50.0657 39.49 49.5059 39.6765 49.8045C39.6019 49.6925 39.5273 49.5432 39.4526 49.4313C39.3034 49.17 39.1541 48.9088 39.0048 48.6476C38.9302 48.5356 38.8555 48.3863 38.7809 48.2744C38.7063 48.1624 38.6689 48.0878 38.5943 47.9758C38.0718 47.9012 37.5494 47.8266 36.9896 47.8266Z" fill="#0B0F2F"></path><path d="M72.293 7.82104C72.3303 7.89568 72.3303 7.97032 72.3676 8.04496C72.3303 7.97032 72.3303 7.89568 72.293 7.82104Z" fill="#394092"></path><path d="M72.1438 7.52246C72.1811 7.5971 72.2184 7.67174 72.2558 7.74637C72.2558 7.67174 72.2184 7.5971 72.1438 7.52246Z" fill="#394092"></path><path d="M66.2847 16.3669C66.8071 16.3296 67.255 16.3669 67.5535 16.4042C68.2999 16.4789 69.0462 17.076 69.9419 17.8224C71.472 14.7622 72.7035 10.0601 72.3676 8.11951C72.4049 8.34342 72.4049 8.60465 72.4049 8.9032C71.3973 11.7021 69.718 14.2024 66.2847 16.3669Z" fill="#53556A"></path><path d="M66.2849 16.367C69.7182 14.2025 71.3975 11.7022 72.4051 8.9406C72.4051 8.64205 72.4051 8.38082 72.3678 8.15691C72.3678 8.11959 72.3678 8.11959 72.3678 8.08228C72.3678 8.00764 72.3305 7.933 72.2932 7.85836C72.2932 7.82104 72.2932 7.82104 72.2559 7.78373C72.2185 7.70909 72.1812 7.63445 72.1439 7.55981C71.099 10.5453 69.345 13.2696 65.5012 15.546C65.3892 15.8446 65.3146 16.1431 65.2026 16.4416C65.6131 16.4043 65.949 16.367 66.2849 16.367Z" fill="#53556A"></path><path d="M61.2468 16.8895C62.7023 16.7029 64.083 16.5163 65.2399 16.4416C65.3519 16.1431 65.4638 15.8446 65.5385 15.546C66.7327 11.9261 67.3298 8.15691 66.5834 7.03735C66.9566 7.55981 64.4189 13.083 61.2468 16.8895Z" fill="url(#paint2_linear)"></path><path d="M15.9792 66.9711H15.9419C15.4567 67.0457 15.0089 67.0457 14.8596 66.9338C14.8223 66.9338 14.8223 66.8965 14.8223 66.8965C14.6357 67.9787 14.7104 69.3595 14.9343 70.1805C15.3448 71.7479 15.494 71.0761 16.6136 71.1135C17.7332 71.1508 19.3752 71.8971 18.9647 70.3298C18.7034 69.3968 18.0317 67.7548 17.3227 66.5979C17.2107 66.7099 16.5763 66.8964 15.9792 66.9711Z" fill="#394092"></path><path d="M56.6193 52.6034C56.6566 52.5661 56.6939 52.4914 56.7312 52.4541C55.761 52.4914 54.7533 52.678 54.0816 52.9392C52.5515 53.5363 53.2606 53.611 53.3726 54.6932C53.4845 55.8128 52.9247 57.5294 54.4548 56.9323C55.537 56.4845 57.5522 55.3276 58.5598 54.2827C58.5225 54.32 58.4479 54.32 58.4106 54.3574C58.1493 54.5439 56.4327 52.9392 56.6193 52.6034Z" fill="#4C4294"></path><path d="M68.1134 48.7222C68.0761 48.9088 68.0387 49.0954 67.9641 49.2819C68.0387 49.0954 68.0761 48.9088 68.1134 48.7222Z" fill="#00B1FF"></path><path d="M68.2253 48.1625C68.188 48.3491 68.188 48.4983 68.1506 48.6849C68.188 48.5357 68.188 48.3491 68.2253 48.1625Z" fill="#00B1FF"></path><path d="M76.6968 22.4126C76.7341 22.4872 76.7341 22.5246 76.7714 22.5992C76.7341 22.5246 76.6968 22.4872 76.6968 22.4126Z" fill="#00B1FF"></path><path d="M66.9191 30.8466C66.8818 30.9212 66.8444 31.0331 66.8071 31.1078C66.8818 30.9958 66.9191 30.9212 66.9191 30.8466Z" fill="#00B1FF"></path><path d="M68.2627 47.6027C68.2627 47.7519 68.2253 47.9012 68.2253 48.0878C68.2627 47.9012 68.2627 47.7519 68.2627 47.6027Z" fill="#00B1FF"></path><path d="M66.8072 31.1825C66.7699 31.2945 66.7326 31.4064 66.658 31.5557C66.7326 31.4064 66.7699 31.2945 66.8072 31.1825Z" fill="#00B1FF"></path><path d="M68.2253 46.5951C68.2627 46.7444 68.2627 46.8936 68.2627 47.0429C68.2627 46.8563 68.2627 46.7444 68.2253 46.5951Z" fill="#00B1FF"></path><path d="M68.1506 46.1099C68.188 46.2591 68.2253 46.3711 68.2253 46.5204C68.2253 46.3711 68.188 46.2218 68.1506 46.1099Z" fill="#00B1FF"></path><path d="M76.9207 23.2336C76.958 23.4202 76.958 23.6441 76.958 23.8307C76.958 23.6441 76.9207 23.4576 76.9207 23.2336Z" fill="#00B1FF"></path><path d="M67.0685 30.5107C67.0312 30.5854 67.0312 30.66 66.9939 30.6973C66.9939 30.6227 67.0312 30.5481 67.0685 30.5107Z" fill="#00B1FF"></path><path d="M76.7712 22.6365C76.8086 22.8231 76.8832 23.0097 76.8832 23.1963C76.8832 23.0097 76.8459 22.8231 76.7712 22.6365Z" fill="#00B1FF"></path><path d="M76.4355 22.0394C76.4729 22.0767 76.5102 22.1141 76.5475 22.1514C76.5102 22.0767 76.4729 22.0394 76.4355 22.0394Z" fill="#00B1FF"></path><path d="M21.1293 60.7388C21.092 60.8134 21.0547 60.888 21.0547 60.9254C21.0547 60.888 21.092 60.8134 21.1293 60.7388Z" fill="#00B1FF"></path><path d="M67.9642 49.3939C67.9269 49.5805 67.8522 49.8044 67.7776 49.991C67.8522 49.8044 67.8895 49.5805 67.9642 49.3939Z" fill="#00B1FF"></path><path d="M67.7402 50.1404C67.6656 50.3643 67.591 50.5882 67.479 50.8121C67.591 50.5882 67.6656 50.3643 67.7402 50.1404Z" fill="#00B1FF"></path><path d="M21.2411 60.4403C21.2038 60.5523 21.1665 60.6269 21.1292 60.7015C21.1665 60.6269 21.2038 60.5149 21.2411 60.4403Z" fill="#00B1FF"></path><path d="M76.2488 21.9275C76.2861 21.9275 76.3607 21.9648 76.3981 22.0021C76.3234 21.9648 76.2861 21.9275 76.2488 21.9275Z" fill="#00B1FF"></path><path d="M76.5474 22.1887C76.5847 22.2634 76.622 22.3007 76.6593 22.3753C76.622 22.3007 76.5847 22.226 76.5474 22.1887Z" fill="#00B1FF"></path><path d="M21.0172 61C20.9799 61.0746 20.9426 61.1493 20.9053 61.1866C20.9426 61.1493 20.9799 61.0746 21.0172 61Z" fill="#00B1FF"></path><path d="M76.958 23.8307C73.3007 22.2633 71.2109 18.9419 69.3823 18.718C67.3297 18.4568 58.1867 15.8072 57.7015 22.7484C57.6269 23.5695 64.3443 31.5556 58.0001 37.1161C59.2689 33.5708 57.3657 26.331 56.9178 25.8832C44.3788 13.4934 32.8473 34.0187 24.376 35.6607C21.3159 35.3621 18.4797 37.6013 17.0615 41.669C15.7927 45.3635 16.2405 52.6034 17.5094 57.7906C16.5764 58.2758 15.83 58.9848 15.4942 59.9551C14.9717 61.4852 15.4568 64.6573 15.9793 66.971C16.6137 66.8964 17.2481 66.7098 17.2481 66.5978C17.8079 63.2018 19.7858 63.0899 20.868 61.2613C20.3083 62.2689 19.4499 62.754 18.7036 63.5004C18.7036 63.1645 18.7409 62.7913 18.7409 62.4555C18.7409 62.4928 18.8528 61.5598 18.8902 61.4852C18.9275 61.1866 19.0021 60.8881 19.0768 60.5895C19.8978 59.8432 20.7561 59.2834 21.2412 57.9026C21.2786 57.7906 21.3159 57.6787 21.3532 57.5294C23.555 55.4022 28.6303 49.2074 24.5626 42.9005C26.6524 41.9302 33.1459 45.065 36.9897 45.2889C43.2592 45.6621 49.2675 48.0132 56.5447 44.244C57.8135 44.5798 58.9704 46.5577 58.4106 47.3041C58.3733 47.3041 58.3733 47.3041 58.336 47.2668C58.9704 47.4534 59.6421 47.64 60.2392 47.8266C59.8287 48.1624 59.4182 48.5729 59.045 49.0581C58.0747 50.215 57.2537 51.5958 56.7313 52.4914C56.6939 52.5287 56.6566 52.6034 56.6193 52.6407C56.8432 52.3048 57.1418 51.8197 57.4403 51.2972C57.8508 51.6704 58.224 51.9689 58.336 51.8943C61.7693 50.0657 66.3968 50.924 67.4417 48.2744C67.7776 47.4534 67.9642 46.7443 68.1134 46.1099C68.0761 45.9233 68.0015 45.7367 67.9268 45.5501C67.4044 44.2067 66.2475 43.2364 65.0533 42.0422C64.4562 41.2585 63.7472 40.4375 63.0381 39.6165C63.2993 39.094 63.5606 38.5342 63.8218 37.9744C63.5606 37.6759 66.6207 29.2046 67.1058 27.6372C67.2178 27.2267 67.3297 26.8535 67.4044 26.4803L70.0913 25.5473C70.0913 25.5473 72.3678 27.376 76.846 24.6144C76.9206 24.4651 76.958 24.1666 76.958 23.8307Z" fill="url(#paint3_linear)"></path><path d="M64.4561 36.743C65.0905 35.3622 65.6876 33.9814 66.1727 32.8245C66.3593 32.3394 66.5459 31.9289 66.6952 31.5557C66.1354 32.8991 65.3144 34.8397 64.4561 36.743Z" fill="#00B1FF"></path><path d="M64.2322 37.1907C64.2695 37.0788 64.3441 36.9668 64.3815 36.8549C64.3441 36.9295 64.3068 37.0788 64.2322 37.1907Z" fill="#00B1FF"></path><path d="M63.9709 37.7878C64.0083 37.7132 64.0456 37.6012 64.0829 37.5266C64.0456 37.6012 64.0083 37.6759 63.9709 37.7878Z" fill="#00B1FF"></path><path d="M14.8225 66.9337C14.9718 67.0457 15.4196 67.0457 15.9047 66.971C15.4569 67.0083 14.9718 67.0457 14.8225 66.9337Z" fill="#00B1FF"></path><path d="M14.8225 66.9337C14.9718 67.0457 15.4569 67.0457 15.9047 66.971H15.9421C15.4196 64.6573 14.9345 61.5225 15.4569 59.9551C15.7928 58.9848 16.5392 58.2758 17.4721 57.7907C16.2033 52.6407 15.7555 45.3636 17.0243 41.669C18.4797 37.6013 21.316 35.3622 24.3388 35.6607C32.7728 34.0187 44.3415 13.5308 56.8806 25.8832C57.3284 26.3311 59.2317 33.5709 57.9628 37.1161C64.3443 31.5183 57.627 23.5695 57.6643 22.7485C58.1494 15.8072 67.2925 18.4941 69.345 18.718C71.1736 18.942 73.2635 22.3006 76.9207 23.8307C76.9207 23.6441 76.8834 23.4202 76.8834 23.2336V23.1963C76.8461 23.0097 76.8088 22.8231 76.7714 22.6365V22.5992C76.7341 22.5245 76.7341 22.4499 76.6968 22.4126C76.6968 22.4126 76.6968 22.3753 76.6595 22.3753C76.6222 22.3006 76.5848 22.226 76.5475 22.1887C76.5475 22.1887 76.5475 22.1514 76.5102 22.1514C76.4729 22.114 76.4356 22.0767 76.3983 22.0394L76.3609 22.0021C76.3236 21.9648 76.249 21.9275 76.2117 21.9275C73.4128 21.1064 71.4722 19.1659 69.9048 17.8224C69.0092 17.076 68.2628 16.4789 67.5164 16.4043C67.2179 16.367 66.7701 16.367 66.2476 16.367C65.9117 16.367 65.5759 16.4043 65.2027 16.4416C64.0831 16.5163 62.7023 16.7028 61.2096 16.8894C64.3817 13.0829 66.9193 7.55978 66.5461 7C65.1653 10.9558 62.777 14.501 57.4031 17.4865C55.3879 17.8224 53.4846 18.1583 52.0292 18.4195C35.1612 16.2923 31.28 31.6676 22.5101 33.347C20.0471 33.123 17.7334 34.5038 16.166 37.2281C16.054 37.2654 15.9047 37.2654 15.7928 37.3027C15.3077 37.452 14.7852 37.6386 14.3374 37.9371C14.0761 38.0864 13.8895 38.273 13.6283 38.4596C13.4044 38.6462 13.1805 38.8701 12.9939 39.094C12.5834 39.5418 12.2475 40.027 11.949 40.5121C11.7624 40.8107 11.5758 41.1092 11.4265 41.4078C12.3222 40.3629 13.1805 39.1687 14.412 38.5342C14.8598 38.3103 15.3077 38.1237 15.7555 38.0118C15.6062 38.3103 15.4942 38.6089 15.3823 38.9074C15.345 39.0567 15.2703 39.206 15.233 39.3553C13.9642 43.0498 14.412 50.2896 15.6808 55.4769C14.7479 55.962 14.0015 56.6711 13.6656 57.6414C12.9193 59.8059 14.1881 65.2544 14.7479 66.8591C14.7852 66.8964 14.8225 66.8964 14.8225 66.9337Z" fill="#0B0F2F"></path><path d="M58.336 47.2668C58.3733 47.2668 58.3733 47.2668 58.4106 47.3041C58.9704 46.5578 57.8135 44.5799 56.5447 44.244C49.2676 48.0132 43.2593 45.6248 36.9897 45.2889C33.1459 45.065 26.6525 41.9302 24.5626 42.9005C28.5931 49.2074 23.5177 55.4396 21.3532 57.5294C21.3159 57.6414 21.2786 57.7533 21.2413 57.9026C20.7935 59.2834 19.8978 59.8432 19.0768 60.5896C19.0022 60.8881 18.9275 61.1867 18.8902 61.4852C18.8902 61.5225 18.7782 62.4928 18.7409 62.4555C18.7036 62.7914 18.7036 63.1645 18.7036 63.5004C19.45 62.7167 20.271 62.2316 20.8681 61.2613V61.224C20.9054 61.1493 20.9427 61.112 20.98 61.0374C20.98 61.0374 20.98 61.0001 21.0174 61.0001C21.0547 60.9254 21.092 60.8508 21.092 60.8135C21.092 60.8135 21.092 60.7762 21.1293 60.7762C21.1666 60.7015 21.204 60.5896 21.2413 60.5149C21.2786 60.403 21.3159 60.291 21.3532 60.1417C22.7713 58.7609 24.376 56.3726 25.8688 53.7603C26.6525 52.3795 27.3989 50.9614 28.0333 49.5432C30.1231 48.573 33.1459 47.6773 36.9897 47.8639C37.5495 47.9012 38.072 47.9385 38.6318 48.0132C44.1922 48.573 49.6408 50.1777 56.0969 47.0802C56.2462 47.0056 56.4327 46.9309 56.582 46.8563C57.1418 46.9309 57.7389 47.1175 58.336 47.2668Z" fill="url(#paint4_linear)"></path><path d="M58.3732 51.8569C58.2613 51.9316 57.8508 51.633 57.4776 51.2598C57.1417 51.7823 56.8805 52.2674 56.6566 52.6033C56.4326 52.9392 58.1493 54.5066 58.4105 54.3946C58.4479 54.3573 58.5225 54.3573 58.5598 54.32C61.9558 52.6033 66.4714 53.387 67.5163 50.812C67.5909 50.5881 67.7029 50.3642 67.7775 50.1403C67.7775 50.103 67.8148 50.0656 67.8148 50.0283C67.8895 49.8044 67.9641 49.6178 68.0014 49.4312C68.0014 49.3939 68.0387 49.3566 68.0387 49.3193C68.0761 49.1327 68.1507 48.9461 68.188 48.7595V48.7222C68.2253 48.5356 68.2626 48.349 68.2626 48.1997C68.2626 48.1624 68.2626 48.1251 68.2626 48.0877C68.3 47.9385 68.3 47.7519 68.3 47.6026C68.3 47.5653 68.3 47.528 68.3 47.528C68.3 47.3787 68.3 47.2294 68.3 47.0801V47.0428C68.3 46.8936 68.2626 46.7443 68.2626 46.595C68.2626 46.5577 68.2626 46.5577 68.2626 46.5204C68.2253 46.3711 68.2253 46.2591 68.188 46.1099C68.0761 46.7443 67.8521 47.4533 67.5163 48.2743C66.434 50.8866 61.8065 50.0283 58.3732 51.8569Z" fill="url(#paint5_linear)"></path><path d="M70.1286 25.5846L67.4416 26.5176C67.367 26.8908 67.2924 27.264 67.1431 27.6745C66.6579 29.2419 63.5978 37.6759 63.8591 38.0117C63.8964 37.9371 63.9337 37.8625 63.971 37.7878C64.0083 37.7132 64.0456 37.6012 64.083 37.5266C64.1203 37.4147 64.1949 37.3027 64.2322 37.1907C64.2696 37.0788 64.3442 36.9668 64.3815 36.8549C64.3815 36.8176 64.4188 36.8176 64.4188 36.7802C65.3145 34.8397 66.1355 32.9364 66.6579 31.5556C66.6953 31.4437 66.7699 31.2944 66.8072 31.1824C66.8072 31.1451 66.8445 31.1451 66.8445 31.1078C66.8819 30.9958 66.9192 30.9212 66.9565 30.8466C66.9565 30.8093 66.9938 30.7719 66.9938 30.7346C67.0311 30.66 67.0311 30.5853 67.0685 30.548C67.1058 30.4361 67.1431 30.3614 67.1804 30.2495C67.2924 29.839 67.4043 29.4658 67.479 29.0926L70.1659 28.1596C70.1659 28.1596 76.3981 26.5922 76.9206 24.7263C72.405 27.4133 70.1286 25.5846 70.1286 25.5846Z" fill="url(#paint6_linear)"></path><defs><linearGradient id="paint0_linear" x1="71.2688" y1="49.4356" x2="66.1277" y2="49.4291" gradientUnits="userSpaceOnUse"><stop stop-color="#38467E"></stop><stop offset="1" stop-color="#0B0F2F"></stop></linearGradient><linearGradient id="paint1_linear" x1="42.5706" y1="67.6011" x2="31.6626" y2="67.5741" gradientUnits="userSpaceOnUse"><stop stop-color="#38467E"></stop><stop offset="1" stop-color="#0B0F2F"></stop></linearGradient><linearGradient id="paint2_linear" x1="61.2468" y1="11.9634" x2="66.982" y2="12.411" gradientUnits="userSpaceOnUse"><stop stop-color="#0AF6A1"></stop><stop offset="0.338535" stop-color="#1FC7D1"></stop><stop offset="0.677091" stop-color="#5F7DA1"></stop><stop offset="1" stop-color="#C172FF"></stop></linearGradient><linearGradient id="paint3_linear" x1="15.2698" y1="42.4885" x2="76.3097" y2="52.925" gradientUnits="userSpaceOnUse"><stop stop-color="#0AF6A1"></stop><stop offset="0.338535" stop-color="#1FC7D1"></stop><stop offset="0.677091" stop-color="#5F7DA1"></stop><stop offset="1" stop-color="#C172FF"></stop></linearGradient><linearGradient id="paint4_linear" x1="59.6182" y1="70.8364" x2="20.8604" y2="70.6193" gradientUnits="userSpaceOnUse"><stop stop-color="#38467E"></stop><stop offset="1" stop-color="#0B0F2F"></stop></linearGradient><linearGradient id="paint5_linear" x1="68.611" y1="57.3263" x2="57.2675" y2="57.2797" gradientUnits="userSpaceOnUse"><stop stop-color="#38467E"></stop><stop offset="1" stop-color="#0B0F2F"></stop></linearGradient><linearGradient id="paint6_linear" x1="77.2693" y1="42.7006" x2="64.5507" y2="42.6641" gradientUnits="userSpaceOnUse"><stop stop-color="#38467E"></stop><stop offset="1" stop-color="#0B0F2F"></stop></linearGradient></defs></svg> 