<?xml version="1.0" encoding="UTF-8"?> <svg xmlns="http://www.w3.org/2000/svg" width="80" height="80" viewBox="0 0 80 80" fill="none"><circle cx="39.7343" cy="39.7343" r="32.7343" fill="#2E3049"></circle><path d="M39.8868 6.04674L64.9999 13.7804C64.9971 22.2324 64.9031 37.3461 61.7912 50.4946C60.1884 57.267 57.8051 63.4241 54.2948 67.8696C50.8134 72.2783 46.2333 75 40.1145 75C33.9329 75 29.3094 72.2875 25.798 67.897C22.2574 63.4698 19.8536 57.3353 18.2369 50.5784C15.0964 37.4533 15.0029 22.334 15.0001 13.7785L39.8868 6.04674Z" fill="url(#paint0_linear)" stroke="#0B0F2F" stroke-width="2"></path><path d="M62.1057 15.7994C62.1057 21.7735 61.8767 30.2751 60.9604 39.0065C60.5022 42.6829 59.815 46.3593 59.1278 49.8059C57.5242 56.9288 55.0044 62.2136 52.0264 66.1198C48.8194 70.2557 44.9251 72.0939 39.8855 72.0939C36.4494 72.0939 33.4714 71.1748 30.7225 69.1068C29.5771 68.1877 28.6608 67.2686 27.7445 66.1198C25.4538 63.1327 23.3921 58.9968 21.7886 53.9418C21.3304 52.5631 21.1013 51.1845 20.6432 49.8059C20.185 48.1974 19.956 46.3593 19.4978 44.7508C19.2687 40.6149 18.5815 36.7088 18.3524 32.5729C17.8943 26.369 17.8943 20.3949 17.8943 15.7994L40.1145 8.90619L41.489 9.36574L51.7974 12.5826L60.5022 15.3398L62.1057 15.7994Z" fill="url(#paint1_linear)"></path><path d="M47.3741 42.8392C47.3741 43.9991 47.2168 44.8936 46.9022 45.5227C46.5877 46.1519 46.0765 46.604 45.3687 46.8793C44.6806 47.1349 43.7075 47.2823 42.4492 47.3216V49.5924H40.9747V47.3511C39.0087 47.2725 37.4753 47.1545 36.3743 46.9972V45.3163C37.8881 45.5129 39.4216 45.621 40.9747 45.6407V39.9491L39.2348 39.7722C38.3501 39.6739 37.662 39.4773 37.1705 39.1824C36.6987 38.8678 36.3645 38.4353 36.1679 37.8848C35.9909 37.3344 35.9025 36.5873 35.9025 35.6436C35.9025 34.464 36.0892 33.5596 36.4628 32.9305C36.856 32.2817 37.4064 31.8296 38.1142 31.574C38.8416 31.3184 39.7951 31.1709 40.9747 31.1316V28.8314H42.4492V31.1316C44.022 31.1709 45.3884 31.2987 46.5483 31.515V33.1664C45.3098 32.9895 43.9434 32.8715 42.4492 32.8126V38.2977L44.3071 38.4746C45.1328 38.5729 45.7521 38.7499 46.165 39.0055C46.5975 39.261 46.9022 39.6837 47.0792 40.2735C47.2758 40.8437 47.3741 41.6989 47.3741 42.8392ZM40.9747 38.1502V32.8126C40.208 32.8322 39.5985 32.901 39.1464 33.019C38.6942 33.1369 38.3403 33.3925 38.0847 33.7857C37.8291 34.1789 37.7013 34.7491 37.7013 35.4961C37.7013 36.2039 37.7505 36.7249 37.8488 37.0591C37.9668 37.3933 38.1634 37.6293 38.4386 37.7669C38.7138 37.8848 39.1464 37.9733 39.7362 38.0323L40.9747 38.1502ZM42.4492 45.6407C43.3339 45.6014 43.9925 45.4933 44.4251 45.3163C44.8576 45.1394 45.1525 44.8641 45.3098 44.4906C45.467 44.1171 45.5457 43.5764 45.5457 42.8686C45.5457 42.0822 45.4867 41.5219 45.3687 41.1877C45.2508 40.8338 45.064 40.5979 44.8084 40.48C44.5725 40.362 44.1597 40.2735 43.5699 40.2145L42.4492 40.0966V45.6407Z" fill="white"></path><defs><linearGradient id="paint0_linear" x1="14" y1="40.5" x2="66.4397" y2="45.7123" gradientUnits="userSpaceOnUse"><stop stop-color="#C172FF"></stop><stop offset="0.598962" stop-color="#1FDEDE"></stop><stop offset="1" stop-color="#0068E1"></stop></linearGradient><linearGradient id="paint1_linear" x1="17.8943" y1="40.5" x2="62.5177" y2="44.7373" gradientUnits="userSpaceOnUse"><stop stop-color="#0AF6A1"></stop><stop offset="0.338535" stop-color="#1FC7D1"></stop><stop offset="0.677091" stop-color="#5F7DA1"></stop><stop offset="1" stop-color="#C172FF"></stop></linearGradient></defs></svg> 