<?xml version="1.0" encoding="UTF-8"?> <svg xmlns="http://www.w3.org/2000/svg" width="80" height="80" viewBox="0 0 80 80" fill="none"><circle cx="40.1016" cy="36" r="32" fill="#2E3049"></circle><path fill-rule="evenodd" clip-rule="evenodd" d="M39.9831 4C48.2869 4 55.8481 7.15612 61.519 12.3207L60.3376 12.7932L59.6962 13.4684L59.8481 14.2616L60.6245 14.3797L61.097 15.5443L62.4304 15.0042L62.6498 16.5738H62.2616L61.1477 16.4219L59.9156 16.6245L58.7342 18.2954L57.0464 18.5654L56.8101 20L57.5359 20.1688L57.3165 21.097L55.6456 20.7426L54.0928 21.097L53.789 21.9578L54.0422 23.7468L54.9536 24.1688L56.4726 24.1519L57.4852 24.0675L57.8228 23.2574L59.4093 21.1814L60.4557 21.4008L61.4852 20.4726L61.6878 21.1983L64.2363 22.9198L63.9325 23.3418L62.7848 23.2574L63.2405 23.8987L63.9325 24.0506L64.7764 23.6962L64.7595 22.6835L65.1308 22.5148L64.8439 22.211L63.1392 21.2658L62.7004 20H64.1181L64.5738 20.4388L65.8059 21.4852L65.8565 22.7511L67.1224 24.1181L67.5949 22.2785L68.4726 21.789L68.6245 23.308L69.4852 24.2363H69.8397C70.1941 25.1308 70.5148 26.0422 70.7848 26.9536H69.2827L67.6962 25.789L66.0253 25.9409V26.9536H65.5021L64.9451 26.5485L62.0253 25.8228V23.9325L58.3797 24.2194L57.2321 24.827H55.7806L55.0886 24.7764L53.3165 25.7553V27.5949L49.7046 30.1941L49.9916 31.308H50.7342L50.5316 32.3713L50.0253 32.5738L49.9916 35.3249L53.1139 38.8861H54.481L54.5654 38.6667H57.0127L57.7046 38.0084H59.0886L59.865 38.7848L61.924 39.0042L61.654 41.7384L63.9494 45.789L62.7173 48.1013L62.8186 49.1983L63.7637 50.1266V52.7426L65.0127 54.4135V56.0675C59.1392 63.3586 50.1603 68 40.0844 68C23.4262 68 9.80591 55.4093 8.1519 39.2743C8.13502 39.0211 8.11814 38.7679 8.10127 38.5148V38.4979C8.01688 37.6878 8 36.8439 8 35.9831V35.7806V35.4093L8.01688 34.9367L8.03376 34.4641V34.1941C8.05063 33.9747 8.05063 33.789 8.06751 33.5865L8.08439 33.4346C8.35443 29.8565 9.23207 26.4641 10.5992 23.2911V25.0464L11.9662 25.7046V28.3038L13.2658 30.5148L14.3122 30.6667L14.4473 29.9072L13.1983 27.9831L12.9451 26.1097H13.6878L13.9916 28.0338L15.7975 30.6498L15.3249 31.5105L16.4726 33.2658L19.3249 33.9916V33.5359L20.4557 33.7046L20.3544 34.5148L21.2489 34.6667L22.6329 35.0549L24.5907 37.2658L27.0717 37.4684L27.3249 39.5105L25.6203 40.692L25.5359 42.5148L25.2827 43.6287L27.7468 46.7173L27.9494 47.7806C27.9494 47.7806 28.8439 48.0169 28.962 48.0169C29.0633 48.0169 30.9705 49.4684 30.9705 49.4684V55.038L31.6456 55.2405L31.173 57.8228L32.3207 59.3418L32.1013 61.9072L33.6203 64.557L35.5443 66.2447L37.4852 66.2616L37.6878 65.6371L36.2532 64.4388L36.3544 63.8481L36.6076 63.1055L36.6582 62.3629L35.6793 62.3291L35.1899 61.7215L35.9831 60.9451L36.1013 60.3544L35.2067 60.1013L35.2405 59.5612L36.5232 59.3586L38.4641 58.4304L39.1055 57.2321L41.1477 54.6329L40.6751 52.5907L41.3165 51.5274L43.1899 51.5612L44.4557 50.5654L44.8608 46.6329L46.2616 44.8439L46.4979 43.7131L45.2321 43.308L44.3713 41.9072L41.5021 41.8903L39.2236 41.0127L39.1055 39.3755L38.346 38.0591L36.2869 38.0253L35.1055 36.1519L34.0422 35.6456L33.9916 36.2025L32.0675 36.3207L31.3755 35.3249L29.3502 34.9198L27.6962 36.8439L25.097 36.4051L24.8945 33.4684L22.9873 33.1308L23.7637 31.6962L23.5274 30.8523L21.0464 32.5232L19.4768 32.3544L18.9198 31.1055L19.2743 29.8397L20.1519 28.3038L22.1603 27.2911H26.0084V28.4557L27.3924 29.097L27.2743 27.0886L28.2869 26.0759L30.2954 24.7595L30.4473 23.8312L32.4557 21.7553L34.5992 20.5738L34.3966 20.4219L35.8481 19.0549L36.3544 19.1899L36.5907 19.4937L37.1477 18.8861L37.2827 18.8017L36.6751 18.7173L36.0506 18.5148V17.9072L36.3882 17.654L37.1139 17.6371L37.4177 17.789L37.7046 18.346L38.0591 18.3122V18.2616L38.1603 18.2954L39.1561 18.1435L39.308 17.6371L39.865 17.789V18.3122L39.3418 18.6835L39.4262 19.2743L41.2321 19.8312C41.2321 19.8312 41.2321 19.8312 41.2321 19.8481L41.654 19.8143L41.6709 19.038L40.2363 18.3797L40.1519 17.9916L41.3333 17.6034L41.384 16.4557L40.135 15.6962L40.0506 13.7722L38.346 14.616H37.7215L37.8734 13.1308L35.5443 12.5907L34.5992 13.3165V15.5443L32.8608 16.0844L32.1688 17.519L31.4093 17.654V15.8312L29.789 15.6118L28.9789 15.0717L28.6413 13.8903L31.5612 12.1857L32.9789 11.7637L33.1139 12.7089L33.9072 12.6751L33.9578 12.1857L34.8017 12.0675L34.8186 11.8987L34.4473 11.7637L34.3629 11.2574L35.3924 11.1561L36.0169 10.5148L36.0338 10.481H36.0506L36.2194 10.2785L38.3797 10.0084L39.308 10.8017L36.827 12.135L40 12.8776L40.4051 11.8312H41.789L42.2954 10.903L41.2996 10.6667V9.50211L38.2447 8.13502L36.1857 8.37131L34.9873 8.99578L35.0717 10.5316L33.8228 10.3291L33.6203 9.48523L34.8186 8.38819L32.6413 8.28692L32.0169 8.48945L31.7468 9.21519L32.557 9.36709L32.3882 10.1603L31.0042 10.2616L30.7848 10.8017L28.7764 10.8354C28.7764 10.8354 28.7257 9.70464 28.6413 9.70464C28.557 9.70464 30.211 9.67089 30.211 9.67089L31.3924 8.50633L30.7511 8.16878L29.8734 9.02954L28.4388 8.94515L27.5612 7.74684H25.7215L23.7975 9.18143H25.5696L25.7215 9.70464L25.2827 10.1266L27.2236 10.1772L27.5274 10.8692L25.3165 10.7848L25.2152 10.2447L23.865 9.99156L23.1224 9.56962H21.9409C27.0717 6.05907 33.2827 4 39.9831 4Z" fill="url(#paint0_linear)"></path><ellipse cx="40.2022" cy="72.8155" rx="21.8462" ry="2.18462" fill="#0B0F2F"></ellipse><defs><linearGradient id="paint0_linear" x1="8" y1="36" x2="70.8275" y2="44.3647" gradientUnits="userSpaceOnUse"><stop stop-color="#0AF6A1"></stop><stop offset="0.338535" stop-color="#1FC7D1"></stop><stop offset="0.677091" stop-color="#5F7DA1"></stop><stop offset="1" stop-color="#C172FF"></stop></linearGradient></defs></svg> 